<mxfile host="app.diagrams.net" modified="2023-11-27T17:47:21.916Z" agent="Mozilla/5.0 (Windows NT 10.0; Win64; x64) AppleWebKit/537.36 (KHTML, like Gecko) Chrome/119.0.0.0 Safari/537.36" etag="oBLsrcBFknUu-yvEUBjc" version="22.1.4" type="github">
  <diagram name="Página-1" id="wJogan_kCjDctZugPYrj">
    <mxGraphModel dx="1114" dy="592" grid="1" gridSize="10" guides="1" tooltips="1" connect="1" arrows="1" fold="1" page="1" pageScale="1" pageWidth="1169" pageHeight="827" math="0" shadow="0">
      <root>
        <mxCell id="0" />
        <mxCell id="1" parent="0" />
        <mxCell id="avNSUXT3k2WayVw4U2n5-1" value="Aluguéis" style="rounded=1;whiteSpace=wrap;html=1;" vertex="1" parent="1">
          <mxGeometry x="490" y="180" width="120" height="70" as="geometry" />
        </mxCell>
        <mxCell id="avNSUXT3k2WayVw4U2n5-2" value="Pagamentos" style="rounded=1;whiteSpace=wrap;html=1;" vertex="1" parent="1">
          <mxGeometry x="730" y="210" width="120" height="60" as="geometry" />
        </mxCell>
        <mxCell id="avNSUXT3k2WayVw4U2n5-3" value="Funcionários" style="rounded=1;whiteSpace=wrap;html=1;" vertex="1" parent="1">
          <mxGeometry x="350" y="90" width="120" height="60" as="geometry" />
        </mxCell>
        <mxCell id="avNSUXT3k2WayVw4U2n5-4" value="Carros" style="rounded=1;whiteSpace=wrap;html=1;" vertex="1" parent="1">
          <mxGeometry x="610" y="70" width="110" height="60" as="geometry" />
        </mxCell>
        <mxCell id="avNSUXT3k2WayVw4U2n5-5" value="Clientes" style="rounded=1;whiteSpace=wrap;html=1;" vertex="1" parent="1">
          <mxGeometry x="630" y="410" width="130" height="60" as="geometry" />
        </mxCell>
        <mxCell id="avNSUXT3k2WayVw4U2n5-7" value="" style="edgeStyle=entityRelationEdgeStyle;fontSize=12;html=1;endArrow=ERoneToMany;rounded=0;exitX=0.5;exitY=0;exitDx=0;exitDy=0;entryX=0;entryY=0.5;entryDx=0;entryDy=0;" edge="1" parent="1" source="avNSUXT3k2WayVw4U2n5-1" target="avNSUXT3k2WayVw4U2n5-4">
          <mxGeometry width="100" height="100" relative="1" as="geometry">
            <mxPoint x="510" y="220" as="sourcePoint" />
            <mxPoint x="520" y="80" as="targetPoint" />
            <Array as="points">
              <mxPoint x="404" y="180" />
              <mxPoint x="440" y="180" />
              <mxPoint x="520" y="190" />
              <mxPoint x="590" y="180" />
              <mxPoint x="394" y="180" />
            </Array>
          </mxGeometry>
        </mxCell>
        <mxCell id="avNSUXT3k2WayVw4U2n5-8" value="Salários" style="rounded=1;whiteSpace=wrap;html=1;" vertex="1" parent="1">
          <mxGeometry x="310" y="330" width="120" height="60" as="geometry" />
        </mxCell>
        <mxCell id="avNSUXT3k2WayVw4U2n5-9" value="" style="edgeStyle=entityRelationEdgeStyle;fontSize=12;html=1;endArrow=ERmandOne;startArrow=ERmandOne;rounded=0;exitX=1;exitY=0.75;exitDx=0;exitDy=0;entryX=0;entryY=0.25;entryDx=0;entryDy=0;" edge="1" parent="1" source="avNSUXT3k2WayVw4U2n5-1" target="avNSUXT3k2WayVw4U2n5-2">
          <mxGeometry width="100" height="100" relative="1" as="geometry">
            <mxPoint x="630" y="230" as="sourcePoint" />
            <mxPoint x="730" y="130" as="targetPoint" />
          </mxGeometry>
        </mxCell>
        <mxCell id="avNSUXT3k2WayVw4U2n5-11" value="" style="edgeStyle=entityRelationEdgeStyle;fontSize=12;html=1;endArrow=ERoneToMany;rounded=0;entryX=0;entryY=0.25;entryDx=0;entryDy=0;exitX=0.5;exitY=1;exitDx=0;exitDy=0;" edge="1" parent="1" source="avNSUXT3k2WayVw4U2n5-1" target="avNSUXT3k2WayVw4U2n5-5">
          <mxGeometry width="100" height="100" relative="1" as="geometry">
            <mxPoint x="560" y="240" as="sourcePoint" />
            <mxPoint x="640" y="250" as="targetPoint" />
          </mxGeometry>
        </mxCell>
      </root>
    </mxGraphModel>
  </diagram>
</mxfile>
